<svg xmlns="http://www.w3.org/2000/svg" width="2628" height="1677.151" viewBox="0 0 2628 1677.151">
  <g id="Background" transform="translate(222 -363)">
    <g id="Group_8" data-name="Group 8" transform="translate(-42 1569)" opacity="0.21">
      <g id="Rectangle_1" data-name="Rectangle 1" fill="#6e8cd0" stroke="#707070" stroke-width="1">
        <rect width="35" height="35" stroke="none"/>
        <rect x="0.5" y="0.5" width="34" height="34" fill="none"/>
      </g>
      <g id="Rectangle_2" data-name="Rectangle 2" transform="translate(0 34)" fill="#6e8cd0" stroke="#707070" stroke-width="1">
        <rect width="35" height="35" stroke="none"/>
        <rect x="0.5" y="0.5" width="34" height="34" fill="none"/>
      </g>
      <g id="Rectangle_3" data-name="Rectangle 3" transform="translate(0 68)" fill="#6e8cd0" stroke="#707070" stroke-width="1">
        <rect width="35" height="35" stroke="none"/>
        <rect x="0.5" y="0.5" width="34" height="34" fill="none"/>
      </g>
      <g id="Rectangle_4" data-name="Rectangle 4" transform="translate(0 102)" fill="#6e8cd0" stroke="#707070" stroke-width="1">
        <rect width="35" height="35" stroke="none"/>
        <rect x="0.5" y="0.5" width="34" height="34" fill="none"/>
      </g>
    </g>
    <g id="Group_10" data-name="Group 10" transform="translate(1648.092 1542)" opacity="0.21">
      <g id="Rectangle_5" data-name="Rectangle 5" transform="translate(-0.092)" fill="#ffde92" stroke="#707070" stroke-width="1">
        <rect width="35" height="35" stroke="none"/>
        <rect x="0.5" y="0.5" width="34" height="34" fill="none"/>
      </g>
      <g id="Rectangle_6" data-name="Rectangle 6" transform="translate(-0.092 34)" fill="#ffde92" stroke="#707070" stroke-width="1">
        <rect width="35" height="35" stroke="none"/>
        <rect x="0.5" y="0.5" width="34" height="34" fill="none"/>
      </g>
      <g id="Path_1" data-name="Path 1" transform="translate(34)" fill="#ffde92">
        <path d="M 34.5 34.5 L 0.5 34.5 L 0.5 0.5 L 34.5 0.5 L 34.5 34.5 Z" stroke="none"/>
        <path d="M 1 1 L 1 34 L 34 34 L 34 1 L 1 1 M 0 0 L 35 0 L 35 35 L 0 35 L 0 0 Z" stroke="none" fill="#707070"/>
      </g>
      <g id="Rectangle_8" data-name="Rectangle 8" transform="translate(33.908 34)" fill="#ffde92" stroke="#707070" stroke-width="1">
        <rect width="35" height="35" stroke="none"/>
        <rect x="0.5" y="0.5" width="34" height="34" fill="none"/>
      </g>
    </g>
    <g id="Group_12" data-name="Group 12" transform="translate(92 560.075)" opacity="0.21">
      <g id="Rectangle_5-2" data-name="Rectangle 5" transform="translate(34 -0.075)" fill="#a783c6" stroke="#707070" stroke-width="1">
        <rect width="35" height="35" stroke="none"/>
        <rect x="0.5" y="0.5" width="34" height="34" fill="none"/>
      </g>
      <g id="Rectangle_6-2" data-name="Rectangle 6" transform="translate(34 33.925)" fill="#a783c6" stroke="#707070" stroke-width="1">
        <rect width="35" height="35" stroke="none"/>
        <rect x="0.5" y="0.5" width="34" height="34" fill="none"/>
      </g>
      <g id="Rectangle_7" data-name="Rectangle 7" transform="translate(34 67.925)" fill="#a783c6" stroke="#707070" stroke-width="1">
        <rect width="35" height="35" stroke="none"/>
        <rect x="0.5" y="0.5" width="34" height="34" fill="none"/>
      </g>
      <g id="Rectangle_8-2" data-name="Rectangle 8" transform="translate(0 67.925)" fill="#a783c6" stroke="#707070" stroke-width="1">
        <rect width="35" height="35" stroke="none"/>
        <rect x="0.5" y="0.5" width="34" height="34" fill="none"/>
      </g>
    </g>
    <g id="Group_13" data-name="Group 13" transform="translate(-221.908 807.075)" opacity="0.21">
      <g id="Rectangle_5-3" data-name="Rectangle 5" transform="translate(-0.092 33.925)" fill="#e64325" stroke="#707070" stroke-width="1">
        <rect width="35" height="35" stroke="none"/>
        <rect x="0.5" y="0.5" width="34" height="34" fill="none"/>
      </g>
      <g id="Rectangle_6-3" data-name="Rectangle 6" transform="translate(-0.092 67.925)" fill="#e64325" stroke="#707070" stroke-width="1">
        <rect width="35" height="35" stroke="none"/>
        <rect x="0.5" y="0.5" width="34" height="34" fill="none"/>
      </g>
      <g id="Rectangle_7-2" data-name="Rectangle 7" transform="translate(33.908 -0.075)" fill="#e64325" stroke="#707070" stroke-width="1">
        <rect width="35" height="35" stroke="none"/>
        <rect x="0.5" y="0.5" width="34" height="34" fill="none"/>
      </g>
      <g id="Rectangle_8-3" data-name="Rectangle 8" transform="translate(33.908 33.925)" fill="#e64325" stroke="#707070" stroke-width="1">
        <rect width="35" height="35" stroke="none"/>
        <rect x="0.5" y="0.5" width="34" height="34" fill="none"/>
      </g>
    </g>
    <g id="Group_14" data-name="Group 14" transform="translate(92 1937.151)" opacity="0.21">
      <g id="Path_4" data-name="Path 4" transform="translate(34 34)" fill="#66c4d9">
        <path d="M 34.5 34.5 L 0.5 34.5 L 0.5 0.5 L 34.5 0.5 L 34.5 34.5 Z" stroke="none"/>
        <path d="M 1 1 L 1 34 L 34 34 L 34 1 L 1 1 M 0 0 L 35 0 L 35 35 L 0 35 L 0 0 Z" stroke="none" fill="#707070"/>
      </g>
      <g id="Path_2" data-name="Path 2" transform="translate(34 68)" fill="#66c4d9">
        <path d="M 34.5 34.5 L 0.5 34.5 L 0.5 0.5 L 34.5 0.5 L 34.5 34.5 Z" stroke="none"/>
        <path d="M 1 1 L 1 34 L 34 34 L 34 1 L 1 1 M 0 0 L 35 0 L 35 35 L 0 35 L 0 0 Z" stroke="none" fill="#707070"/>
      </g>
      <g id="Rectangle_7-3" data-name="Rectangle 7" transform="translate(0 -0.151)" fill="#66c4d9" stroke="#707070" stroke-width="1">
        <rect width="35" height="35" stroke="none"/>
        <rect x="0.5" y="0.5" width="34" height="34" fill="none"/>
      </g>
      <g id="Rectangle_8-4" data-name="Rectangle 8" transform="translate(0 33.849)" fill="#66c4d9" stroke="#707070" stroke-width="1">
        <rect width="35" height="35" stroke="none"/>
        <rect x="0.5" y="0.5" width="34" height="34" fill="none"/>
      </g>
    </g>
    <g id="Group_15" data-name="Group 15" transform="translate(604.644 566.999)" opacity="0.21">
      <g id="Rectangle_1-2" data-name="Rectangle 1" transform="translate(0.356 0.001)" fill="#6e8cd0" stroke="#707070" stroke-width="1">
        <rect width="35" height="35" stroke="none"/>
        <rect x="0.5" y="0.5" width="34" height="34" fill="none"/>
      </g>
      <g id="Rectangle_2-2" data-name="Rectangle 2" transform="translate(0.356 34.001)" fill="#6e8cd0" stroke="#707070" stroke-width="1">
        <rect width="35" height="35" stroke="none"/>
        <rect x="0.5" y="0.5" width="34" height="34" fill="none"/>
      </g>
      <g id="Rectangle_3-2" data-name="Rectangle 3" transform="translate(0.356 68.001)" fill="#6e8cd0" stroke="#707070" stroke-width="1">
        <rect width="35" height="35" stroke="none"/>
        <rect x="0.5" y="0.5" width="34" height="34" fill="none"/>
      </g>
      <g id="Rectangle_4-2" data-name="Rectangle 4" transform="translate(0.356 102.001)" fill="#6e8cd0" stroke="#707070" stroke-width="1">
        <rect width="35" height="35" stroke="none"/>
        <rect x="0.5" y="0.5" width="34" height="34" fill="none"/>
      </g>
    </g>
    <g id="Group_16" data-name="Group 16" transform="translate(618.629 1962) rotate(180)" opacity="0.21">
      <g id="Rectangle_5-4" data-name="Rectangle 5" transform="translate(-0.371 0.001)" fill="#f0c808" stroke="#707070" stroke-width="1">
        <rect width="35" height="35" stroke="none"/>
        <rect x="0.5" y="0.5" width="34" height="34" fill="none"/>
      </g>
      <g id="Rectangle_6-4" data-name="Rectangle 6" transform="translate(-0.371 34.001)" fill="#f0c808" stroke="#707070" stroke-width="1">
        <rect width="35" height="35" stroke="none"/>
        <rect x="0.5" y="0.5" width="34" height="34" fill="none"/>
      </g>
      <g id="Path_3" data-name="Path 3" transform="translate(0 68)" fill="#f0c808">
        <path d="M 34.5 34.5 L 0.5 34.5 L 0.5 0.5 L 34.5 0.5 L 34.5 34.5 Z" stroke="none"/>
        <path d="M 1 1 L 1 34 L 34 34 L 34 1 L 1 1 M 0 0 L 35 0 L 35 35 L 0 35 L 0 0 Z" stroke="none" fill="#707070"/>
      </g>
      <g id="Rectangle_8-5" data-name="Rectangle 8" transform="translate(33.629 34.001)" fill="#f0c808" stroke="#707070" stroke-width="1">
        <rect width="35" height="35" stroke="none"/>
        <rect x="0.5" y="0.5" width="34" height="34" fill="none"/>
      </g>
    </g>
    <g id="Group_17" data-name="Group 17" transform="translate(487 895.999)" opacity="0.21">
      <g id="Rectangle_5-5" data-name="Rectangle 5" transform="translate(0 0.001)" fill="#ffde92" stroke="#707070" stroke-width="1">
        <rect width="35" height="35" stroke="none"/>
        <rect x="0.5" y="0.5" width="34" height="34" fill="none"/>
      </g>
      <g id="Rectangle_6-5" data-name="Rectangle 6" transform="translate(0 34.001)" fill="#ffde92" stroke="#707070" stroke-width="1">
        <rect width="35" height="35" stroke="none"/>
        <rect x="0.5" y="0.5" width="34" height="34" fill="none"/>
      </g>
      <g id="Path_1-2" data-name="Path 1" transform="translate(34.092)" fill="#ffde92">
        <path d="M 34.5 34.5 L 0.5 34.5 L 0.5 0.5 L 34.5 0.5 L 34.5 34.5 Z" stroke="none"/>
        <path d="M 1 1 L 1 34 L 34 34 L 34 1 L 1 1 M 0 0 L 35 0 L 35 35 L 0 35 L 0 0 Z" stroke="none" fill="#707070"/>
      </g>
      <g id="Rectangle_8-6" data-name="Rectangle 8" transform="translate(34 34.001)" fill="#ffde92" stroke="#707070" stroke-width="1">
        <rect width="35" height="35" stroke="none"/>
        <rect x="0.5" y="0.5" width="34" height="34" fill="none"/>
      </g>
    </g>
    <g id="Group_18" data-name="Group 18" transform="translate(1066.317 1910.438)" opacity="0.21">
      <g id="Rectangle_5-6" data-name="Rectangle 5" transform="translate(-0.317 -0.438)" fill="#7c9848" stroke="#707070" stroke-width="1">
        <rect width="35" height="35" stroke="none"/>
        <rect x="0.5" y="0.5" width="34" height="34" fill="none"/>
      </g>
      <g id="Rectangle_6-6" data-name="Rectangle 6" transform="translate(-0.317 33.562)" fill="#7c9848" stroke="#707070" stroke-width="1">
        <rect width="35" height="35" stroke="none"/>
        <rect x="0.5" y="0.5" width="34" height="34" fill="none"/>
      </g>
      <g id="Rectangle_7-4" data-name="Rectangle 7" transform="translate(-0.317 67.562)" fill="#7c9848" stroke="#707070" stroke-width="1">
        <rect width="35" height="35" stroke="none"/>
        <rect x="0.5" y="0.5" width="34" height="34" fill="none"/>
      </g>
      <g id="Rectangle_8-7" data-name="Rectangle 8" transform="translate(33.683 67.562)" fill="#7c9848" stroke="#707070" stroke-width="1">
        <rect width="35" height="35" stroke="none"/>
        <rect x="0.5" y="0.5" width="34" height="34" fill="none"/>
      </g>
    </g>
    <g id="Group_21" data-name="Group 21" transform="translate(1920.644 1910)" opacity="0.21">
      <g id="Path_4-2" data-name="Path 4" transform="translate(34 34.151)" fill="#66c4d9">
        <path d="M 34.5 34.5 L 0.5 34.5 L 0.5 0.5 L 34.5 0.5 L 34.5 34.5 Z" stroke="none"/>
        <path d="M 1 1 L 1 34 L 34 34 L 34 1 L 1 1 M 0 0 L 35 0 L 35 35 L 0 35 L 0 0 Z" stroke="none" fill="#707070"/>
      </g>
      <g id="Path_2-2" data-name="Path 2" transform="translate(34 68.151)" fill="#66c4d9">
        <path d="M 34.5 34.5 L 0.5 34.5 L 0.5 0.5 L 34.5 0.5 L 34.5 34.5 Z" stroke="none"/>
        <path d="M 1 1 L 1 34 L 34 34 L 34 1 L 1 1 M 0 0 L 35 0 L 35 35 L 0 35 L 0 0 Z" stroke="none" fill="#707070"/>
      </g>
      <g id="Rectangle_7-5" data-name="Rectangle 7" transform="translate(0.356 0)" fill="#66c4d9" stroke="#707070" stroke-width="1">
        <rect width="35" height="35" stroke="none"/>
        <rect x="0.5" y="0.5" width="34" height="34" fill="none"/>
      </g>
      <g id="Rectangle_8-8" data-name="Rectangle 8" transform="translate(0.356 34)" fill="#66c4d9" stroke="#707070" stroke-width="1">
        <rect width="35" height="35" stroke="none"/>
        <rect x="0.5" y="0.5" width="34" height="34" fill="none"/>
      </g>
    </g>
    <g id="Group_33" data-name="Group 33" transform="translate(122.317 1103.438)" opacity="0.21">
      <g id="Rectangle_5-7" data-name="Rectangle 5" transform="translate(-0.317 -0.438)" fill="#7c9848" stroke="#707070" stroke-width="1">
        <rect width="35" height="35" stroke="none"/>
        <rect x="0.5" y="0.5" width="34" height="34" fill="none"/>
      </g>
      <g id="Rectangle_6-7" data-name="Rectangle 6" transform="translate(-0.317 33.562)" fill="#7c9848" stroke="#707070" stroke-width="1">
        <rect width="35" height="35" stroke="none"/>
        <rect x="0.5" y="0.5" width="34" height="34" fill="none"/>
      </g>
      <g id="Rectangle_7-6" data-name="Rectangle 7" transform="translate(-0.317 67.562)" fill="#7c9848" stroke="#707070" stroke-width="1">
        <rect width="35" height="35" stroke="none"/>
        <rect x="0.5" y="0.5" width="34" height="34" fill="none"/>
      </g>
      <g id="Rectangle_8-9" data-name="Rectangle 8" transform="translate(33.683 67.562)" fill="#7c9848" stroke="#707070" stroke-width="1">
        <rect width="35" height="35" stroke="none"/>
        <rect x="0.5" y="0.5" width="34" height="34" fill="none"/>
      </g>
    </g>
    <g id="Group_34" data-name="Group 34" transform="translate(418 1392.438)" opacity="0.21">
      <g id="Rectangle_5-8" data-name="Rectangle 5" transform="translate(0 33.562)" fill="#e64325" stroke="#707070" stroke-width="1">
        <rect width="35" height="35" stroke="none"/>
        <rect x="0.5" y="0.5" width="34" height="34" fill="none"/>
      </g>
      <g id="Rectangle_6-8" data-name="Rectangle 6" transform="translate(0 67.562)" fill="#e64325" stroke="#707070" stroke-width="1">
        <rect width="35" height="35" stroke="none"/>
        <rect x="0.5" y="0.5" width="34" height="34" fill="none"/>
      </g>
      <g id="Rectangle_7-7" data-name="Rectangle 7" transform="translate(34 -0.438)" fill="#e64325" stroke="#707070" stroke-width="1">
        <rect width="35" height="35" stroke="none"/>
        <rect x="0.5" y="0.5" width="34" height="34" fill="none"/>
      </g>
      <g id="Rectangle_8-10" data-name="Rectangle 8" transform="translate(34 33.562)" fill="#e64325" stroke="#707070" stroke-width="1">
        <rect width="35" height="35" stroke="none"/>
        <rect x="0.5" y="0.5" width="34" height="34" fill="none"/>
      </g>
    </g>
    <g id="Group_46" data-name="Group 46" transform="translate(1955.317 363.438)" opacity="0.21">
      <g id="Rectangle_5-9" data-name="Rectangle 5" transform="translate(-0.317 -0.438)" fill="#7c9848" stroke="#707070" stroke-width="1">
        <rect width="35" height="35" stroke="none"/>
        <rect x="0.5" y="0.5" width="34" height="34" fill="none"/>
      </g>
      <g id="Rectangle_6-9" data-name="Rectangle 6" transform="translate(-0.317 33.562)" fill="#7c9848" stroke="#707070" stroke-width="1">
        <rect width="35" height="35" stroke="none"/>
        <rect x="0.5" y="0.5" width="34" height="34" fill="none"/>
      </g>
      <g id="Rectangle_7-8" data-name="Rectangle 7" transform="translate(-0.317 67.562)" fill="#7c9848" stroke="#707070" stroke-width="1">
        <rect width="35" height="35" stroke="none"/>
        <rect x="0.5" y="0.5" width="34" height="34" fill="none"/>
      </g>
      <g id="Rectangle_8-11" data-name="Rectangle 8" transform="translate(33.683 67.562)" fill="#7c9848" stroke="#707070" stroke-width="1">
        <rect width="35" height="35" stroke="none"/>
        <rect x="0.5" y="0.5" width="34" height="34" fill="none"/>
      </g>
    </g>
    <g id="Group_20" data-name="Group 20" transform="translate(1579 1118.438)" opacity="0.21">
      <g id="Rectangle_5-10" data-name="Rectangle 5" transform="translate(0 33.562)" fill="#e64325" stroke="#707070" stroke-width="1">
        <rect width="35" height="35" stroke="none"/>
        <rect x="0.5" y="0.5" width="34" height="34" fill="none"/>
      </g>
      <g id="Rectangle_6-10" data-name="Rectangle 6" transform="translate(0 67.562)" fill="#e64325" stroke="#707070" stroke-width="1">
        <rect width="35" height="35" stroke="none"/>
        <rect x="0.5" y="0.5" width="34" height="34" fill="none"/>
      </g>
      <g id="Rectangle_7-9" data-name="Rectangle 7" transform="translate(34 -0.438)" fill="#e64325" stroke="#707070" stroke-width="1">
        <rect width="35" height="35" stroke="none"/>
        <rect x="0.5" y="0.5" width="34" height="34" fill="none"/>
      </g>
      <g id="Rectangle_8-12" data-name="Rectangle 8" transform="translate(34 33.562)" fill="#e64325" stroke="#707070" stroke-width="1">
        <rect width="35" height="35" stroke="none"/>
        <rect x="0.5" y="0.5" width="34" height="34" fill="none"/>
      </g>
    </g>
    <g id="Group_60" data-name="Group 60" transform="translate(2371 1432)" opacity="0.21">
      <g id="Rectangle_1-3" data-name="Rectangle 1" fill="#6e8cd0" stroke="#707070" stroke-width="1">
        <rect width="35" height="35" stroke="none"/>
        <rect x="0.5" y="0.5" width="34" height="34" fill="none"/>
      </g>
      <g id="Rectangle_2-3" data-name="Rectangle 2" transform="translate(0 34)" fill="#6e8cd0" stroke="#707070" stroke-width="1">
        <rect width="35" height="35" stroke="none"/>
        <rect x="0.5" y="0.5" width="34" height="34" fill="none"/>
      </g>
      <g id="Rectangle_3-3" data-name="Rectangle 3" transform="translate(0 68)" fill="#6e8cd0" stroke="#707070" stroke-width="1">
        <rect width="35" height="35" stroke="none"/>
        <rect x="0.5" y="0.5" width="34" height="34" fill="none"/>
      </g>
      <g id="Rectangle_4-3" data-name="Rectangle 4" transform="translate(0 102)" fill="#6e8cd0" stroke="#707070" stroke-width="1">
        <rect width="35" height="35" stroke="none"/>
        <rect x="0.5" y="0.5" width="34" height="34" fill="none"/>
      </g>
    </g>
    <g id="Group_61" data-name="Group 61" transform="translate(1955 1000.075)" opacity="0.21">
      <g id="Rectangle_5-11" data-name="Rectangle 5" transform="translate(34 -0.075)" fill="#a783c6" stroke="#707070" stroke-width="1">
        <rect width="35" height="35" stroke="none"/>
        <rect x="0.5" y="0.5" width="34" height="34" fill="none"/>
      </g>
      <g id="Rectangle_6-11" data-name="Rectangle 6" transform="translate(34 33.925)" fill="#a783c6" stroke="#707070" stroke-width="1">
        <rect width="35" height="35" stroke="none"/>
        <rect x="0.5" y="0.5" width="34" height="34" fill="none"/>
      </g>
      <g id="Rectangle_7-10" data-name="Rectangle 7" transform="translate(34 67.925)" fill="#a783c6" stroke="#707070" stroke-width="1">
        <rect width="35" height="35" stroke="none"/>
        <rect x="0.5" y="0.5" width="34" height="34" fill="none"/>
      </g>
      <g id="Rectangle_8-13" data-name="Rectangle 8" transform="translate(0 67.925)" fill="#a783c6" stroke="#707070" stroke-width="1">
        <rect width="35" height="35" stroke="none"/>
        <rect x="0.5" y="0.5" width="34" height="34" fill="none"/>
      </g>
    </g>
    <g id="Group_62" data-name="Group 62" transform="translate(2302.317 704.438)" opacity="0.21">
      <g id="Rectangle_5-12" data-name="Rectangle 5" transform="translate(-0.317 -0.438)" fill="#7c9848" stroke="#707070" stroke-width="1">
        <rect width="35" height="35" stroke="none"/>
        <rect x="0.5" y="0.5" width="34" height="34" fill="none"/>
      </g>
      <g id="Rectangle_6-12" data-name="Rectangle 6" transform="translate(-0.317 33.562)" fill="#7c9848" stroke="#707070" stroke-width="1">
        <rect width="35" height="35" stroke="none"/>
        <rect x="0.5" y="0.5" width="34" height="34" fill="none"/>
      </g>
      <g id="Rectangle_7-11" data-name="Rectangle 7" transform="translate(-0.317 67.562)" fill="#7c9848" stroke="#707070" stroke-width="1">
        <rect width="35" height="35" stroke="none"/>
        <rect x="0.5" y="0.5" width="34" height="34" fill="none"/>
      </g>
      <g id="Rectangle_8-14" data-name="Rectangle 8" transform="translate(33.683 67.562)" fill="#7c9848" stroke="#707070" stroke-width="1">
        <rect width="35" height="35" stroke="none"/>
        <rect x="0.5" y="0.5" width="34" height="34" fill="none"/>
      </g>
    </g>
    <g id="Group_63" data-name="Group 63" transform="translate(2169 1686.075)" opacity="0.21">
      <g id="Rectangle_5-13" data-name="Rectangle 5" transform="translate(34 -0.075)" fill="#a783c6" stroke="#707070" stroke-width="1">
        <rect width="35" height="35" stroke="none"/>
        <rect x="0.5" y="0.5" width="34" height="34" fill="none"/>
      </g>
      <g id="Rectangle_6-13" data-name="Rectangle 6" transform="translate(34 33.925)" fill="#a783c6" stroke="#707070" stroke-width="1">
        <rect width="35" height="35" stroke="none"/>
        <rect x="0.5" y="0.5" width="34" height="34" fill="none"/>
      </g>
      <g id="Rectangle_7-12" data-name="Rectangle 7" transform="translate(34 67.925)" fill="#a783c6" stroke="#707070" stroke-width="1">
        <rect width="35" height="35" stroke="none"/>
        <rect x="0.5" y="0.5" width="34" height="34" fill="none"/>
      </g>
      <g id="Rectangle_8-15" data-name="Rectangle 8" transform="translate(0 67.925)" fill="#a783c6" stroke="#707070" stroke-width="1">
        <rect width="35" height="35" stroke="none"/>
        <rect x="0.5" y="0.5" width="34" height="34" fill="none"/>
      </g>
    </g>
  </g>
</svg>
